<svg xmlns="http://www.w3.org/2000/svg" width="700" zoomAndPan="magnify"
     viewBox="0 0 525 525.000007" height="700" preserveAspectRatio="xMidYMid meet" version="1.0">
    <defs>
        <g/>
    </defs>
    <g fill="#ffffff" fill-opacity="1">
        <g transform="translate(92.660656, 349.95848)">
            <g>
                <path d="M 55.71875 -89.15625 L 55.71875 0 L 11.140625 0 L 11.140625 -89.15625 C 11.140625 -100.988281 13.398438 -112.359375 17.921875 -123.265625 C 22.453125 -134.179688 28.894531 -143.816406 37.25 -152.171875 C 45.613281 -160.535156 55.25 -166.976562 66.15625 -171.5 C 77.070312 -176.03125 88.453125 -178.296875 100.296875 -178.296875 L 100.296875 -133.71875 C 87.984375 -133.71875 77.472656 -129.363281 68.765625 -120.65625 C 60.066406 -111.957031 55.71875 -101.457031 55.71875 -89.15625 Z M 55.71875 -89.15625 "/>
            </g>
        </g>
    </g>
    <g fill="#ffffff" fill-opacity="1">
        <g transform="translate(231.736079, 349.95848)">
            <g>
                <path d="M 129.546875 -121.1875 C 121.304688 -129.539062 111.554688 -133.71875 100.296875 -133.71875 C 87.984375 -133.71875 77.472656 -129.363281 68.765625 -120.65625 C 60.066406 -111.957031 55.71875 -101.457031 55.71875 -89.15625 C 55.71875 -76.84375 60.066406 -66.332031 68.765625 -57.625 C 77.472656 -48.925781 87.984375 -44.578125 100.296875 -44.578125 C 112.597656 -44.578125 123.101562 -48.929688 131.8125 -57.640625 C 134.476562 -60.304688 136.738281 -63.148438 138.59375 -66.171875 L 176.734375 -43.359375 C 173.015625 -37.085938 168.546875 -31.34375 163.328125 -26.125 C 154.960938 -17.757812 145.320312 -11.3125 134.40625 -6.78125 C 123.5 -2.257812 112.128906 0 100.296875 0 C 88.453125 0 77.070312 -2.257812 66.15625 -6.78125 C 55.25 -11.3125 45.613281 -17.753906 37.25 -26.109375 C 28.894531 -34.472656 22.453125 -44.109375 17.921875 -55.015625 C 13.398438 -65.929688 11.140625 -77.3125 11.140625 -89.15625 C 11.140625 -100.988281 13.398438 -112.359375 17.921875 -123.265625 C 22.453125 -134.179688 28.894531 -143.816406 37.25 -152.171875 C 45.613281 -160.535156 55.25 -166.976562 66.15625 -171.5 C 77.070312 -176.03125 88.453125 -178.296875 100.296875 -178.296875 C 112.128906 -178.296875 123.5 -176.03125 134.40625 -171.5 C 145.320312 -166.976562 154.957031 -160.535156 163.3125 -152.171875 C 171.675781 -143.816406 178.125 -134.1875 182.65625 -123.28125 C 186.71875 -113.40625 188.976562 -103.1875 189.4375 -92.625 L 89.5 -62.15625 L 77.65625 -105.171875 Z M 129.546875 -121.1875 "/>
            </g>
        </g>
    </g>
</svg>
